<svg id="App_Icon" data-name="App Icon" xmlns="http://www.w3.org/2000/svg" width="111" height="111" viewBox="0 0 111 111">
  <path id="App_Bg" data-name="App Bg" d="M8.841,0h93.319A8.841,8.841,0,0,1,111,8.841v93.319A8.841,8.841,0,0,1,102.159,111H8.841A8.841,8.841,0,0,1,0,102.159V8.841A8.841,8.841,0,0,1,8.841,0Z" fill="#ffea00"/>
  <path id="Shape" d="M20.537,46.845H30.1L35.207,1H28.92L25.187,37.414,21.585,1H14.643L11.172,37.152,7.308,1H.3L5.408,46.845H15.3l2.62-24.429Zm34.711,0h7.4L52.628,21.434,62.649,1h-7.2L46.014,20.975V1h-7.2V46.845h7.2V32.764l2.227-4.192Z" transform="translate(24.024 31.578)" fill="#202020"/>
</svg>
